<?xml version='1.0' encoding='utf-8'?>
<!-- Generator: Adobe Illustrator 26.2.1, SVG Export Plug-In . SVG Version: 6.00 Build 0)  -->
<svg xmlns:inkscape="http://www.inkscape.org/namespaces/inkscape" xmlns:sodipodi="http://sodipodi.sourceforge.net/DTD/sodipodi-0.dtd" xmlns="http://www.w3.org/2000/svg" xmlns:svg="http://www.w3.org/2000/svg" version="1.1" id="Layer_1" x="0px" y="0px" viewBox="0 0 425.20003 314.70001" xml:space="preserve" sodipodi:docname="Glo-Logo_Glo-Logo-Indigo.svg" width="425.20001" height="314.70001" inkscape:version="1.2.2 (732a01da63, 2022-12-09)"><defs id="defs15"/><sodipodi:namedview id="namedview13" pagecolor="#ffffff" bordercolor="#000000" borderopacity="0.25" inkscape:showpageshadow="2" inkscape:pageopacity="0.0" inkscape:pagecheckerboard="0" inkscape:deskcolor="#d1d1d1" showgrid="false" inkscape:zoom="1.6353503" inkscape:cx="212.79844" inkscape:cy="157.45862" inkscape:window-width="3840" inkscape:window-height="2071" inkscape:window-x="-9" inkscape:window-y="-9" inkscape:window-maximized="1" inkscape:current-layer="Layer_1"/>
<style type="text/css" id="style2">
	.st0{fill:#CBB6FF;}
	.st1{clip-path:url(#SVGID_00000093155861920674791900000009816300483093904827_);}
	.st2{clip-path:url(#SVGID_00000030458034849144999230000013518392358152381860_);}
	.st3{clip-path:url(#SVGID_00000140701606937073043340000003235430742333033638_);}
	.st4{clip-path:url(#SVGID_00000033327486613242276620000006353211136397896870_);}
	.st5{clip-path:url(#SVGID_00000052785843105186936820000014029181642523732353_);}
	.st6{fill:#46327A;}
	.st7{fill:#014751;}
	.st8{fill:#FFFFFF;}
</style>
<g id="g10" transform="translate(-155.8,-156.7)">
	<path class="st6" d="m 497.4,343.8 c -28.9,0 -52.4,-23.5 -52.4,-52.4 0,-28.9 23.5,-52.4 52.4,-52.4 28.9,0 52.4,23.5 52.4,52.4 0,28.9 -23.5,52.4 -52.4,52.4 m 0,-136.1 c -46.1,0 -83.6,37.5 -83.6,83.6 0,46.1 37.5,83.6 83.6,83.6 46.1,0 83.6,-37.5 83.6,-83.6 0,-46.1 -37.5,-83.6 -83.6,-83.6" id="path4"/>
	<path class="st6" d="m 394.8,338.7 c -12.3,-1.6 -22.1,-12.2 -22,-25.1 0,0 0,-156.9 0,-156.9 h -32.6 v 156.9 c -0.2,34.2 29.7,60.6 63.5,58 v -32.2 c -3.6,-0.1 -6.5,-0.3 -8.9,-0.7 z" id="path6"/>
	<path class="st6" d="m 313.8,287.5 c 0,-16.9 -5.3,-32.5 -14.4,-45.3 11.7,-10.5 15.6,-25.6 15.9,-34.8 h -31.5 c -0.4,2.7 -1.9,9.7 -7.6,12.9 -12,-7.4 -26.2,-11.7 -41.3,-11.7 -43.5,0 -78.9,35.4 -78.9,78.9 0,36.8 25.3,67.7 59.4,76.4 h -0.2 c 0,0 2,0.5 5.5,1.2 0.7,0.1 1.4,0.2 2.1,0.4 0.2,0 0.4,0.1 0.6,0.1 0.7,0.1 1.5,0.2 2.2,0.3 2.7,0.3 5.9,0.7 9.5,0.9 v 0 c 0,0 0.4,0 1,0.1 0,0 0,0 0,0 0.1,0 0.3,0 0.5,0 3.7,0.3 10.2,1 16.2,2.8 1.9,0.6 3.9,1.3 5.8,2.1 14.1,6.3 23.6,18.1 23.6,31.6 0,0.6 0,1.2 -0.1,1.8 v 0 c -1.3,19.4 -22.1,34.8 -47.4,34.8 -26.2,0 -47.5,-16.5 -47.5,-36.8 h -31.4 c 0,37.6 35.4,68.2 78.9,68.2 43.5,0 78.9,-30.6 78.9,-68.2 0,-21.7 -11.8,-41.1 -30.2,-53.6 18.5,-14.5 30.4,-37 30.4,-62.1 z m -126.3,0 c 0,-26.2 21.3,-47.5 47.5,-47.5 26.2,0 47.5,21.3 47.5,47.5 0,26.2 -21.3,47.5 -47.5,47.5 -26.2,0 -47.5,-21.3 -47.5,-47.5 z" id="path8"/>
</g>
</svg>
